<svg version="1.2" baseProfile="tiny-ps" xmlns="http://www.w3.org/2000/svg" viewBox="0 0 80 80" width="80" height="80">
    <title>cat-svg</title>
    <style>
        tspan { white-space:pre }
        .shp0 { fill: #f9bd55 }
        .shp1 { fill: #f4dbce }
        .shp2 { fill: #52565b }
        .shp3 { fill: #fd605b }
        .shp4 { fill: #f98080 }
        .shp5 { fill: #f9e63a }
        .shp6 { fill: #039be6 }
        .shp7 { fill: #000000 }
    </style>
    <path id="Layer" class="shp0"
          d="M51.32 43.59C48.03 44.63 43.79 45.4 38.43 45.4C33.08 45.4 28.86 44.63 25.57 43.6C13.57 57 25.83 70.17 29.68 73.74C30.12 74.15 29.99 74.84 29.43 75.09C28.03 75.71 27.54 76.7 27.41 77.55C27.27 78.43 28.03 79.22 28.98 79.22L34.62 79.22C37 79.22 38.07 77.75 38.36 75.58L38.48 75.58C38.77 77.75 39.84 79.22 42.22 79.22L47.92 79.22C48.87 79.22 49.62 78.43 49.49 77.55C49.36 76.7 48.87 75.71 47.47 75.09C46.91 74.84 46.78 74.15 47.22 73.74C51.07 70.17 63.33 56.99 51.32 43.59L51.32 43.59Z"/>
    <path id="Layer" class="shp1"
          d="M38.74 52.97L38.1 52.97C35.63 52.97 33.63 54.97 33.63 57.44L33.63 57.51C33.63 57.51 38.08 67.05 38.42 73.48C38.76 67.05 43.21 57.51 43.21 57.51C43.25 55.01 41.24 52.97 38.74 52.97L38.74 52.97Z"/>
    <path id="Layer" class="shp1"
          d="M38.42 73.48C38.39 73.98 38.39 74.47 38.42 74.93C38.45 74.47 38.45 73.98 38.42 73.48Z"/>
    <path id="Layer" class="shp0"
          d="M60.09 29.3C62.23 29.3 64.63 27.32 64.63 27.32C61.44 26.78 60.78 23.68 59.07 19.69C66.11 16.17 64.32 5.37 63.35 1.27C63.23 0.74 62.55 0.61 62.22 1.04C61.37 2.16 59.58 3.71 55.83 4.57C52.22 5.41 50.18 7.27 49.1 8.72C44.01 6.67 38.43 6.97 38.43 6.97C38.43 6.97 32.85 6.67 27.76 8.72C26.68 7.27 24.65 5.41 21.03 4.57C17.28 3.71 15.49 2.16 14.65 1.04C14.32 0.61 13.63 0.74 13.51 1.27C12.54 5.37 10.76 16.17 17.79 19.69C16.08 23.68 15.42 26.78 12.23 27.32C12.23 27.32 14.64 29.3 16.77 29.3C16.77 29.3 15.7 31.84 12.76 32.4C12.76 32.4 14.37 35.23 19.45 35.23C19.45 35.23 17.84 37.49 15.97 38.05C15.97 38.05 21.85 45.4 38.43 45.4C55.01 45.4 60.89 38.05 60.89 38.05C59.02 37.49 57.42 35.23 57.42 35.23C62.5 35.23 64.1 32.4 64.1 32.4C61.16 31.84 60.09 29.3 60.09 29.3L60.09 29.3Z"/>
    <path id="Layer" class="shp2"
          d="M38.59 31.72C38.59 31.72 38.58 34.92 34.89 35.19C35.22 38.32 36.75 40.69 38.59 40.69C40.44 40.69 41.97 38.32 42.3 35.19C38.6 34.92 38.59 31.72 38.59 31.72L38.59 31.72Z"/>
    <path id="Layer" class="shp3"
          d="M36.13 39.04C36.79 40.07 37.65 40.69 38.59 40.69C39.54 40.69 40.4 40.07 41.06 39.04C40.4 38.01 39.54 37.38 38.59 37.38C37.65 37.38 36.79 38.01 36.13 39.04L36.13 39.04Z"/>
    <path id="Layer" class="shp0"
          d="M54.53 74.7C57.48 73.15 67.06 67.1 56.27 58.41C55.15 65.7 49.59 71.54 47.22 73.74C46.78 74.15 46.91 74.84 47.47 75.09C48.87 75.71 49.36 76.7 49.49 77.55C49.62 78.43 48.87 79.22 47.92 79.22L54.18 79.22C55.15 79.22 55.89 78.41 55.75 77.52C55.64 76.84 55.3 76.09 54.47 75.5C54.17 75.3 54.21 74.87 54.53 74.7L54.53 74.7Z"/>
    <path id="Layer" class="shp0"
          d="M66.62 44.65C64.43 44.34 62.43 45.97 62.33 48.18C62.07 53.77 60.45 57.7 58.47 60.44C59.79 61.84 60.57 63.17 60.96 64.4C66.08 59.91 68.57 53.53 69.72 49.38C70.33 47.19 68.87 44.97 66.62 44.65L66.62 44.65Z"/>
    <path id="Layer" class="shp4"
          d="M63.35 1.27C63.35 1.24 63.33 1.21 63.32 1.18C62.64 2.56 60.1 7.18 56.02 8.54C51.2 10.14 53.88 13.62 53.88 13.62L52.54 14.42C52.54 14.42 53.34 18.17 56.55 18.17L59.28 19.57C66.06 15.95 64.31 5.32 63.35 1.27L63.35 1.27Z"/>
    <path id="Layer" class="shp4"
          d="M20.85 8.54C16.77 7.18 14.23 2.56 13.55 1.18C13.53 1.21 13.52 1.24 13.51 1.27C12.55 5.32 10.8 15.95 17.58 19.57L20.31 18.17C23.52 18.17 24.32 14.42 24.32 14.42L22.99 13.62C22.99 13.62 25.66 10.14 20.85 8.54L20.85 8.54Z"/>
    <path id="Layer" class="shp2"
          d="M41.26 28.43C41.26 29.74 39.89 31.58 38.59 31.58C37.29 31.58 35.92 29.74 35.92 28.43C35.92 27.13 37.29 28.12 38.59 28.12C39.89 28.12 41.26 27.13 41.26 28.43Z"/>
    <path id="Layer" class="shp5"
          d="M38.44 54.83C36.52 54.83 34.98 53.29 34.98 51.38C34.98 49.46 36.52 47.92 38.44 47.92C40.35 47.92 41.89 49.46 41.89 51.38C41.89 53.29 40.35 54.83 38.44 54.83Z"/>
    <path id="Layer" class="shp6"
          d="M38.43 45.4C33.76 45.4 29.94 44.81 26.86 43.98C27.73 46.39 31.45 48.29 36.19 48.75C36.79 48.23 37.58 47.92 38.44 47.92C39.29 47.92 40.08 48.23 40.68 48.75C45.42 48.29 49.14 46.38 50.01 43.97C46.93 44.81 43.11 45.4 38.43 45.4L38.43 45.4Z"/>
    <path id="Layer" class="shp0"
          d="M22.36 74.7C19.42 73.15 9.84 67.1 20.63 58.41C21.75 65.7 27.31 71.54 29.68 73.74C30.12 74.15 29.99 74.84 29.43 75.09C28.03 75.71 27.54 76.7 27.41 77.55C27.27 78.43 28.03 79.22 28.98 79.22L22.71 79.22C21.75 79.22 21 78.41 21.15 77.52C21.26 76.84 21.59 76.09 22.43 75.5C22.72 75.3 22.68 74.87 22.36 74.7L22.36 74.7Z"/>
    <path id="Layer" fill-rule="evenodd" class="shp7"
          d="M47.92 80C47.49 80 47.14 79.65 47.14 79.22C47.14 78.79 47.49 78.44 47.92 78.44C48.18 78.44 48.41 78.33 48.57 78.15C48.65 78.05 48.75 77.89 48.72 77.67C48.59 76.82 48.08 76.21 47.16 75.81C46.64 75.58 46.29 75.13 46.2 74.59C46.11 74.07 46.29 73.54 46.69 73.17C48.97 71.05 54.41 65.35 55.49 58.29C55.54 58.02 55.72 57.78 55.98 57.68C56.24 57.58 56.54 57.63 56.76 57.8C60.55 60.85 62.32 63.95 62.02 67C61.62 71.14 57.47 73.97 55.31 75.17C55.96 75.76 56.38 76.52 56.52 77.39C56.62 78.02 56.44 78.67 56.02 79.16C55.57 79.7 54.9 80 54.18 80L47.92 80ZM54.18 78.44C54.44 78.44 54.67 78.33 54.83 78.15C54.9 78.07 55.02 77.89 54.98 77.64C54.88 77.01 54.56 76.52 54.02 76.14C53.66 75.89 53.46 75.48 53.49 75.05C53.52 74.61 53.77 74.22 54.17 74.01C55.94 73.08 60.11 70.52 60.47 66.84C60.68 64.62 59.44 62.27 56.78 59.87C55.2 66.78 50.01 72.22 47.75 74.31C47.74 74.34 47.74 74.36 47.79 74.38C49.57 75.17 50.11 76.47 50.26 77.43C50.31 77.77 50.28 78.12 50.17 78.44L54.18 78.44Z"/>
    <path id="Layer" fill-rule="evenodd" class="shp7"
          d="M28.98 80L22.71 80C22 80 21.33 79.7 20.88 79.17C20.46 78.67 20.28 78.03 20.38 77.39C20.52 76.52 20.94 75.76 21.59 75.17C19.43 73.97 15.28 71.14 14.88 67C14.58 63.95 16.35 60.85 20.14 57.8C20.36 57.63 20.65 57.58 20.92 57.68C21.18 57.78 21.36 58.02 21.4 58.29C22.49 65.35 27.92 71.05 30.21 73.17C30.61 73.54 30.79 74.07 30.7 74.59C30.61 75.13 30.25 75.58 29.74 75.81C28.82 76.22 28.31 76.82 28.18 77.67C28.15 77.89 28.24 78.05 28.33 78.15C28.49 78.33 28.72 78.44 28.98 78.44C29.41 78.44 29.76 78.79 29.76 79.22C29.76 79.65 29.41 80 28.98 80ZM16.43 66.84C16.79 70.52 20.95 73.08 22.73 74.01C23.12 74.22 23.38 74.61 23.41 75.05C23.43 75.48 23.24 75.89 22.88 76.14C22.34 76.52 22.02 77.01 21.92 77.64C21.88 77.89 22 78.07 22.07 78.15C22.22 78.33 22.46 78.44 22.71 78.44L26.73 78.44C26.62 78.12 26.58 77.77 26.64 77.43C26.78 76.47 27.33 75.17 29.11 74.38C29.15 74.36 29.16 74.34 29.16 74.33C26.89 72.22 21.69 66.78 20.12 59.87C17.45 62.28 16.21 64.62 16.43 66.84Z"/>
    <path id="Layer" class="shp7"
          d="M42.22 80C40.55 80 39.31 79.38 38.53 78.15C37.1 75.91 37.36 71.67 39.28 65.54C40.68 61.1 42.48 57.22 42.5 57.18C42.68 56.79 43.15 56.62 43.54 56.8C43.93 56.98 44.1 57.45 43.92 57.84C41.98 61.99 37.47 73.58 39.84 77.31C40.33 78.07 41.11 78.44 42.22 78.44C42.65 78.44 43 78.79 43 79.22C43 79.65 42.65 80 42.22 80Z"/>
    <path id="Layer" class="shp7"
          d="M34.62 80C34.19 80 33.84 79.65 33.84 79.22C33.84 78.79 34.19 78.44 34.62 78.44C35.73 78.44 36.51 78.07 36.99 77.31C39.36 73.58 34.86 61.99 32.92 57.84C32.74 57.45 32.91 56.98 33.3 56.8C33.69 56.62 34.15 56.79 34.33 57.18C34.35 57.22 36.16 61.1 37.55 65.54C39.48 71.67 39.73 75.91 38.31 78.15C37.53 79.38 36.28 80 34.62 80L34.62 80Z"/>
    <path id="Layer" fill-rule="evenodd" class="shp7"
          d="M60.75 65.16C60.5 65.08 60.3 64.89 60.22 64.64C59.84 63.45 59.06 62.21 57.9 60.97C57.65 60.7 57.62 60.28 57.84 59.98C60.08 56.87 61.33 52.89 61.55 48.14C61.61 46.88 62.2 45.69 63.18 44.88C64.17 44.06 65.47 43.69 66.73 43.87C68.03 44.06 69.18 44.79 69.9 45.89C70.62 46.98 70.83 48.33 70.48 49.59C69.22 54.11 66.65 60.45 61.48 64.99C61.33 65.12 61.15 65.18 60.96 65.18C60.89 65.18 60.82 65.18 60.75 65.16ZM61.27 63.06C65.6 58.84 67.84 53.24 68.97 49.17C69.2 48.35 69.06 47.46 68.59 46.74C68.12 46.02 67.36 45.54 66.51 45.42C65.68 45.3 64.83 45.54 64.18 46.08C63.53 46.62 63.15 47.38 63.11 48.21C62.89 53.01 61.66 57.1 59.47 60.38C60.24 61.27 60.84 62.16 61.27 63.06Z"/>
    <path id="Layer" fill-rule="evenodd" class="shp7"
          d="M15.36 38.54C15.2 38.34 15.15 38.07 15.23 37.82C15.3 37.57 15.5 37.38 15.75 37.31C16.52 37.07 17.26 36.47 17.82 35.91C13.61 35.39 12.15 32.91 12.08 32.79C11.96 32.57 11.95 32.3 12.05 32.08C12.16 31.85 12.37 31.68 12.62 31.64C14.04 31.36 14.96 30.55 15.48 29.9C13.54 29.39 11.82 27.99 11.73 27.92C11.5 27.73 11.39 27.41 11.47 27.12C11.55 26.82 11.8 26.6 12.1 26.55C14.24 26.19 15.01 24.5 16.29 21.28C16.46 20.88 16.62 20.46 16.8 20.04C13.91 18.3 12.25 15.19 11.87 10.76C11.54 6.96 12.28 3.07 12.75 1.09C12.88 0.55 13.29 0.14 13.84 0.03C14.38 -0.08 14.93 0.12 15.27 0.57C16.04 1.6 17.7 3 21.2 3.81C24.69 4.61 26.8 6.33 28.02 7.79C32.87 5.99 37.88 6.17 38.43 6.19C38.98 6.17 43.99 5.99 48.84 7.79C50.06 6.33 52.18 4.61 55.66 3.81C59.16 3 60.82 1.6 61.59 0.57C61.93 0.12 62.48 -0.08 63.03 0.03C63.57 0.14 63.99 0.55 64.11 1.09C64.58 3.07 65.32 6.96 64.99 10.76C64.61 15.19 62.96 18.3 60.06 20.04C60.24 20.46 60.41 20.88 60.57 21.28C61.85 24.5 62.62 26.19 64.76 26.55C65.07 26.6 65.31 26.82 65.39 27.12C65.47 27.41 65.37 27.73 65.13 27.92C65.04 27.99 63.32 29.39 61.38 29.9C61.91 30.55 62.82 31.36 64.25 31.64C64.49 31.68 64.7 31.85 64.81 32.08C64.91 32.3 64.9 32.57 64.78 32.79C64.71 32.91 63.25 35.39 59.04 35.91C59.6 36.47 60.34 37.07 61.12 37.31C61.36 37.38 61.56 37.57 61.64 37.82C61.71 38.07 61.66 38.34 61.5 38.54C61.25 38.85 55.19 46.18 38.43 46.18C21.67 46.18 15.61 38.85 15.36 38.54ZM38.43 44.62C51.31 44.62 57.57 40.11 59.55 38.3C57.99 37.37 56.84 35.76 56.78 35.68C56.61 35.44 56.59 35.13 56.72 34.87C56.86 34.61 57.12 34.45 57.42 34.45C60.26 34.45 61.89 33.51 62.71 32.8C60.33 31.82 59.41 29.7 59.37 29.6C59.27 29.36 59.29 29.08 59.44 28.86C59.58 28.64 59.83 28.51 60.09 28.51C61.05 28.51 62.11 28.02 62.9 27.55C60.98 26.52 60.1 24.33 59.12 21.87C58.88 21.26 58.63 20.64 58.35 20C58.19 19.62 58.35 19.18 58.72 18.99C65.05 15.83 63.65 6.1 62.66 1.74C61.67 2.95 59.73 4.47 56.01 5.33C52.61 6.12 50.71 7.86 49.72 9.19C49.51 9.47 49.14 9.58 48.81 9.45C43.95 7.49 38.53 7.75 38.47 7.75C38.45 7.76 38.42 7.76 38.39 7.75C38.34 7.75 32.91 7.49 28.06 9.45C27.73 9.58 27.35 9.47 27.14 9.19C26.15 7.86 24.26 6.12 20.85 5.33C17.13 4.47 15.19 2.95 14.2 1.74C13.21 6.1 11.81 15.83 18.14 18.99C18.51 19.18 18.67 19.62 18.51 20C18.23 20.64 17.98 21.26 17.74 21.87C16.76 24.33 15.88 26.52 13.96 27.55C14.75 28.02 15.81 28.51 16.77 28.51C17.04 28.51 17.28 28.64 17.42 28.86C17.57 29.08 17.6 29.36 17.49 29.6C17.45 29.7 16.53 31.82 14.15 32.8C14.97 33.51 16.6 34.45 19.45 34.45C19.74 34.45 20.01 34.61 20.14 34.87C20.28 35.13 20.25 35.44 20.08 35.68C20.03 35.76 18.88 37.36 17.31 38.3C19.32 40.1 25.61 44.62 38.43 44.62Z"/>
    <path id="Layer" class="shp7"
          d="M59.28 20.35C59 20.35 58.73 20.21 58.59 19.94C58.39 19.56 58.53 19.09 58.91 18.88C61.59 17.45 63.11 14.64 63.44 10.52C63.65 7.94 63.34 5.31 62.99 3.35C61.7 5.39 59.43 8.23 56.26 9.28C54.98 9.71 54.21 10.3 53.99 11.02C53.68 12.04 54.49 13.13 54.5 13.14C54.63 13.32 54.69 13.55 54.65 13.77C54.6 13.98 54.47 14.18 54.28 14.29L53.46 14.78C53.78 15.67 54.64 17.38 56.55 17.38C56.98 17.38 57.33 17.73 57.33 18.17C57.33 18.6 56.98 18.95 56.55 18.95C53.51 18.95 52.1 16.09 51.78 14.59C51.71 14.26 51.85 13.92 52.14 13.75L52.81 13.35C52.49 12.68 52.16 11.65 52.5 10.57C52.87 9.33 53.98 8.4 55.77 7.8C59.56 6.54 61.97 2.15 62.62 0.83C62.75 0.56 63.04 0.39 63.35 0.4C63.65 0.41 63.93 0.6 64.04 0.88C64.06 0.92 64.09 0.99 64.12 1.09C64.58 3.04 65.3 6.87 65 10.64C64.62 15.33 62.82 18.57 59.65 20.26C59.53 20.32 59.4 20.35 59.28 20.35L59.28 20.35Z"/>
    <path id="Layer" fill-rule="evenodd" class="shp7"
          d="M47.92 80L42.22 80C40.9 80 39.34 79.6 38.42 77.97C37.5 79.6 35.94 80 34.62 80L28.98 80C28.27 80 27.6 79.7 27.14 79.17C26.73 78.68 26.54 78.05 26.64 77.43C26.78 76.47 27.33 75.17 29.11 74.38C29.15 74.36 29.16 74.34 29.16 74.33C26.97 72.3 23.02 68.1 20.95 62.63C18.3 55.61 19.66 49.03 24.99 43.08C25.19 42.85 25.51 42.76 25.81 42.85C29.52 44.02 33.77 44.62 38.43 44.62C43.11 44.62 47.36 44.02 51.08 42.84C51.37 42.75 51.69 42.84 51.9 43.07C57.24 49.02 58.6 55.61 55.95 62.63C53.88 68.09 49.93 72.3 47.75 74.31C47.74 74.34 47.74 74.36 47.79 74.38C49.57 75.17 50.11 76.47 50.26 77.43C50.36 78.05 50.17 78.68 49.75 79.17C49.3 79.7 48.63 80 47.92 80ZM38.48 74.8C38.87 74.8 39.2 75.09 39.25 75.47C39.53 77.52 40.44 78.44 42.22 78.44L47.92 78.44C48.18 78.44 48.41 78.33 48.57 78.15C48.65 78.05 48.75 77.89 48.72 77.67C48.59 76.82 48.08 76.21 47.16 75.81C46.64 75.58 46.29 75.13 46.2 74.59C46.11 74.07 46.29 73.54 46.69 73.17C50.5 69.63 62 57.17 51.06 44.48C47.31 45.61 43.06 46.18 38.43 46.18C33.81 46.18 29.57 45.61 25.83 44.49C14.9 57.18 26.39 69.63 30.21 73.17C30.61 73.54 30.79 74.07 30.7 74.59C30.61 75.13 30.25 75.58 29.74 75.81C28.82 76.21 28.31 76.82 28.18 77.67C28.15 77.89 28.24 78.05 28.33 78.15C28.49 78.33 28.72 78.44 28.98 78.44L34.62 78.44C36.4 78.44 37.31 77.52 37.58 75.47C37.63 75.09 37.96 74.8 38.36 74.8L38.48 74.8Z"/>
    <path id="Layer" fill-rule="evenodd" class="shp7"
          d="M34.2 51.38C34.2 49.04 36.1 47.14 38.44 47.14C40.77 47.14 42.67 49.04 42.67 51.38C42.67 53.71 40.77 55.61 38.44 55.61C36.1 55.61 34.2 53.71 34.2 51.38ZM35.76 51.38C35.76 52.85 36.96 54.05 38.44 54.05C39.91 54.05 41.11 52.85 41.11 51.38C41.11 49.9 39.91 48.7 38.44 48.7C36.96 48.7 35.76 49.9 35.76 51.38Z"/>
    <path id="Layer" fill-rule="evenodd" class="shp7"
          d="M40.68 49.53C40.5 49.53 40.32 49.47 40.17 49.35C39.69 48.93 39.07 48.7 38.44 48.7C37.8 48.7 37.18 48.93 36.7 49.35C36.54 49.48 36.32 49.55 36.11 49.53C31.03 49.03 27.11 46.96 26.13 44.24C26.03 43.97 26.09 43.66 26.29 43.45C26.48 43.23 26.78 43.15 27.07 43.22C30.47 44.15 34.29 44.62 38.43 44.62C42.57 44.62 46.4 44.15 49.81 43.22C50.09 43.14 50.39 43.23 50.59 43.44C50.78 43.66 50.85 43.96 50.75 44.24C49.77 46.95 45.84 49.03 40.76 49.53C40.73 49.53 40.71 49.53 40.68 49.53ZM35.96 47.94C36.68 47.42 37.54 47.14 38.44 47.14C39.33 47.14 40.2 47.42 40.92 47.94C44.03 47.59 46.71 46.56 48.19 45.22C45.19 45.86 41.91 46.18 38.43 46.18C34.95 46.18 31.69 45.86 28.68 45.22C30.17 46.56 32.84 47.59 35.96 47.94Z"/>
    <path id="Layer" fill-rule="evenodd" class="shp7"
          d="M34.2 51.38C34.2 50.95 34.55 50.6 34.98 50.6L41.89 50.6C42.32 50.6 42.67 50.95 42.67 51.38C42.67 53.71 40.77 55.61 38.44 55.61C36.1 55.61 34.2 53.71 34.2 51.38ZM35.88 52.16C36.21 53.25 37.23 54.05 38.44 54.05C39.64 54.05 40.66 53.25 41 52.16L35.88 52.16Z"/>
    <path id="Layer" class="shp7"
          d="M38.4 53.1C37.96 53.1 37.61 52.75 37.61 52.32L37.61 51.38C37.61 50.95 37.96 50.6 38.4 50.6C38.83 50.6 39.18 50.95 39.18 51.38L39.18 52.32C39.18 52.75 38.83 53.1 38.4 53.1Z"/>
    <path id="Layer" fill-rule="evenodd" class="shp7"
          d="M35.14 28.43C35.14 27.9 35.31 27.5 35.64 27.25C36.18 26.82 36.86 26.99 37.51 27.15C37.88 27.24 38.26 27.34 38.59 27.34C38.93 27.34 39.31 27.24 39.67 27.15C40.33 26.99 41.01 26.82 41.55 27.25C41.88 27.5 42.05 27.9 42.05 28.43C42.05 30.15 40.37 32.36 38.59 32.36C36.81 32.36 35.14 30.15 35.14 28.43ZM36.71 28.57C36.81 29.53 37.85 30.8 38.59 30.8C39.33 30.8 40.38 29.53 40.48 28.57C40.34 28.6 40.17 28.64 40.05 28.67C39.64 28.77 39.12 28.9 38.59 28.9C38.06 28.9 37.55 28.77 37.14 28.67C37.01 28.64 36.85 28.6 36.71 28.57Z"/>
    <path id="Layer" class="shp7"
          d="M42.63 35.98C42.51 35.98 42.38 35.98 42.25 35.97C37.87 35.66 37.81 31.77 37.81 31.73C37.81 31.29 38.16 30.94 38.59 30.94L38.59 30.94C39.02 30.94 39.37 31.29 39.37 31.72C39.38 31.97 39.5 34.21 42.36 34.41C43.12 34.46 43.71 34.3 44.14 33.9C44.97 33.13 44.99 31.73 44.99 31.72C44.99 31.29 45.35 30.95 45.77 30.94C46.2 30.95 46.55 31.29 46.55 31.72C46.55 31.81 46.54 33.8 45.21 35.04C44.53 35.67 43.67 35.98 42.63 35.98Z"/>
    <path id="Layer" class="shp7"
          d="M34.55 35.98C33.52 35.98 32.65 35.67 31.98 35.04C30.65 33.8 30.63 31.81 30.63 31.72C30.63 31.29 30.98 30.94 31.42 30.94C31.85 30.94 32.2 31.29 32.2 31.72C32.2 31.73 32.22 33.13 33.05 33.9C33.48 34.3 34.06 34.47 34.83 34.41C37.77 34.2 37.81 31.82 37.81 31.72C37.81 31.29 38.16 30.94 38.59 30.94L38.6 30.94C39.03 30.94 39.38 31.29 39.37 31.73C39.37 31.77 39.31 35.66 34.94 35.97C34.81 35.98 34.68 35.98 34.55 35.98Z"/>
    <path id="Layer" fill-rule="evenodd" class="shp7"
          d="M34.11 35.27C34.09 35.06 34.15 34.85 34.29 34.69C34.43 34.52 34.62 34.42 34.83 34.41C37.68 34.2 37.81 31.97 37.81 31.72C37.82 31.29 38.17 30.95 38.59 30.95L38.6 30.95C39.03 30.95 39.37 31.29 39.37 31.72C39.38 31.98 39.5 34.2 42.35 34.41C42.56 34.42 42.76 34.52 42.9 34.69C43.03 34.85 43.1 35.06 43.07 35.27C42.69 38.92 40.85 41.47 38.59 41.47C36.34 41.47 34.49 38.92 34.11 35.27ZM38.59 39.91C39.82 39.91 40.99 38.18 41.41 35.86C39.98 35.57 39.11 34.84 38.59 34.08C38.07 34.84 37.21 35.57 35.77 35.86C36.19 38.18 37.36 39.91 38.59 39.91Z"/>
    <path id="Layer" class="shp7"
          d="M70.65 32.04C70.59 32.04 70.53 32.04 70.47 32.02C60.33 29.56 51.31 30.15 51.22 30.16C50.79 30.18 50.41 29.86 50.38 29.43C50.36 29 50.68 28.63 51.11 28.6C51.2 28.59 60.47 27.99 70.83 30.5C71.25 30.6 71.51 31.03 71.41 31.45C71.32 31.8 71 32.04 70.65 32.04L70.65 32.04Z"/>
    <path id="Layer" class="shp7"
          d="M69.82 39.69C69.7 39.69 69.57 39.66 69.46 39.6C60.2 34.79 51.31 33.2 51.22 33.18C50.79 33.11 50.51 32.7 50.58 32.28C50.66 31.85 51.06 31.57 51.49 31.64C51.58 31.66 60.71 33.29 70.18 38.22C70.56 38.42 70.71 38.89 70.51 39.27C70.37 39.54 70.1 39.69 69.82 39.69L69.82 39.69Z"/>
    <path id="Layer" class="shp7"
          d="M6.85 32.04C6.5 32.04 6.18 31.8 6.09 31.45C5.99 31.03 6.25 30.6 6.67 30.5C17.03 27.99 26.3 28.59 26.39 28.6C26.82 28.63 27.14 29 27.12 29.43C27.09 29.86 26.71 30.18 26.28 30.16C26.19 30.15 17.16 29.57 7.03 32.02C6.97 32.04 6.91 32.04 6.85 32.04L6.85 32.04Z"/>
    <path id="Layer" class="shp7"
          d="M7.68 39.69C7.4 39.69 7.13 39.54 6.99 39.27C6.79 38.89 6.94 38.42 7.32 38.22C16.79 33.29 25.92 31.66 26.01 31.64C26.44 31.57 26.84 31.85 26.92 32.28C26.99 32.7 26.71 33.11 26.28 33.18C26.19 33.2 17.28 34.8 8.04 39.6C7.93 39.66 7.8 39.69 7.68 39.69L7.68 39.69Z"/>
    <path id="Layer" class="shp7"
          d="M43.17 26.05C42.74 26.05 42.39 25.7 42.39 25.27C42.38 23.62 43.72 22.27 45.38 22.26C46.19 22.26 46.93 22.57 47.5 23.13C48.07 23.7 48.38 24.45 48.38 25.25C48.39 25.68 48.04 26.03 47.61 26.03C47.6 26.03 47.6 26.03 47.6 26.03C47.17 26.03 46.82 25.69 46.82 25.26C46.82 24.87 46.67 24.51 46.4 24.24C46.13 23.97 45.77 23.82 45.39 23.82C45.39 23.82 45.38 23.82 45.38 23.82C44.59 23.83 43.95 24.47 43.95 25.27C43.95 25.7 43.6 26.05 43.17 26.05C43.17 26.05 43.17 26.05 43.17 26.05L43.17 26.05Z"/>
    <path id="Layer" class="shp7"
          d="M33.86 26.04C33.42 26.04 33.07 25.69 33.07 25.26C33.07 24.47 32.43 23.83 31.64 23.83C30.85 23.83 30.2 24.47 30.2 25.26C30.2 25.69 29.85 26.04 29.42 26.04C28.99 26.04 28.64 25.69 28.64 25.26C28.64 23.61 29.99 22.26 31.64 22.26C33.29 22.26 34.64 23.61 34.64 25.26C34.64 25.69 34.29 26.04 33.86 26.04Z"/>
    <path id="Layer" class="shp7"
          d="M17.58 20.35C17.46 20.35 17.33 20.33 17.22 20.26C14.04 18.57 12.24 15.33 11.86 10.64C11.56 6.87 12.29 3.04 12.75 1.09C12.77 0.99 12.81 0.92 12.82 0.88C12.94 0.6 13.21 0.41 13.52 0.4C13.82 0.39 14.11 0.56 14.25 0.83C14.89 2.15 17.31 6.54 21.09 7.8C22.89 8.4 23.99 9.33 24.37 10.57C24.7 11.65 24.37 12.68 24.05 13.35L24.72 13.75C25.01 13.92 25.16 14.26 25.09 14.59C24.76 16.09 23.35 18.95 20.31 18.95C19.88 18.95 19.53 18.6 19.53 18.17C19.53 17.73 19.88 17.38 20.31 17.38C22.21 17.38 23.08 15.67 23.4 14.78L22.58 14.29C22.39 14.18 22.26 13.98 22.22 13.77C22.18 13.55 22.23 13.32 22.37 13.14C22.37 13.14 23.19 12.04 22.87 11.02C22.65 10.29 21.88 9.71 20.6 9.28C17.44 8.23 15.16 5.39 13.87 3.35C13.52 5.31 13.21 7.94 13.42 10.52C13.75 14.64 15.28 17.45 17.95 18.88C18.33 19.09 18.48 19.56 18.27 19.94C18.13 20.2 17.86 20.35 17.58 20.35L17.58 20.35Z"/>
    <path id="Layer" fill-rule="evenodd" class="shp7"
          d="M35.47 39.46C35.3 39.2 35.3 38.87 35.47 38.62C36.3 37.32 37.41 36.6 38.59 36.6C39.77 36.6 40.88 37.32 41.72 38.62C41.88 38.87 41.88 39.2 41.72 39.46C40.88 40.76 39.77 41.47 38.59 41.47C37.41 41.47 36.3 40.76 35.47 39.46ZM37.09 39.04C37.44 39.46 37.96 39.91 38.59 39.91C39.22 39.91 39.74 39.46 40.1 39.04C39.74 38.61 39.22 38.16 38.59 38.16C37.96 38.16 37.44 38.61 37.09 39.04Z"/>
</svg>
